<svg xmlns="http://www.w3.org/2000/svg" width="300" height="480" viewBox="0 0 240 380" role="img" aria-label="Ilustración original de tarot">
<defs>
  <radialGradient id="night" cx="50%" cy="38%" r="82%"><stop stop-color="#283550"/><stop offset=".56" stop-color="#16243a"/><stop offset="1" stop-color="#090f1d"/></radialGradient>
  <linearGradient id="gold" x1="0" y1="0" x2="1" y2="1"><stop stop-color="#8d744a"/><stop offset=".45" stop-color="#e8d8a4"/><stop offset="1" stop-color="#9e875d"/></linearGradient>
  <linearGradient id="sea" x1="0" y1="0" x2="0" y2="1"><stop stop-color="#5d88a6"/><stop offset="1" stop-color="#1e2c49"/></linearGradient>
  <radialGradient id="halo"><stop stop-color="#f4e9be"/><stop offset=".55" stop-color="#c2cbd0"/><stop offset="1" stop-color="#9eacd1" stop-opacity="0"/></radialGradient>
</defs>
<rect width="240" height="380" rx="7" fill="#070d16"/>
<rect x="6" y="6" width="228" height="368" rx="5" fill="url(#night)" stroke="url(#gold)" stroke-width="2"/>
<rect x="14" y="14" width="212" height="352" rx="3" fill="none" stroke="#b69c67" stroke-opacity=".75" stroke-width=".8"/>
<path d="M15 46 Q35 45 35 17 M225 46 Q205 45 205 17 M15 334 Q35 335 35 363 M225 334 Q205 335 205 363" fill="none" stroke="#d6bc87" stroke-width="1.3"/>
<g fill="url(#gold)"><circle cx="120" cy="22" r="2"/><circle cx="120" cy="356" r="2"/></g>
<circle cx="34" cy="57" r="0.55" fill="#c8c4bd" opacity="0.2"/><circle cx="77" cy="128" r="0.8900000000000001" fill="#c8c4bd" opacity="0.34"/><circle cx="120" cy="199" r="1.23" fill="#c8c4bd" opacity="0.48000000000000004"/><circle cx="163" cy="270" r="0.55" fill="#c8c4bd" opacity="0.6200000000000001"/><circle cx="206" cy="56" r="0.8900000000000001" fill="#c8c4bd" opacity="0.2"/><circle cx="43" cy="127" r="1.23" fill="#c8c4bd" opacity="0.34"/><circle cx="86" cy="198" r="0.55" fill="#c8c4bd" opacity="0.48000000000000004"/><circle cx="129" cy="269" r="0.8900000000000001" fill="#c8c4bd" opacity="0.6200000000000001"/><circle cx="172" cy="55" r="1.23" fill="#c8c4bd" opacity="0.2"/><circle cx="215" cy="126" r="0.55" fill="#c8c4bd" opacity="0.34"/><circle cx="52" cy="197" r="0.8900000000000001" fill="#c8c4bd" opacity="0.48000000000000004"/><circle cx="95" cy="268" r="1.23" fill="#c8c4bd" opacity="0.6200000000000001"/><circle cx="138" cy="54" r="0.55" fill="#c8c4bd" opacity="0.2"/><circle cx="181" cy="125" r="0.8900000000000001" fill="#c8c4bd" opacity="0.34"/><circle cx="18" cy="196" r="1.23" fill="#c8c4bd" opacity="0.48000000000000004"/><circle cx="61" cy="267" r="0.55" fill="#c8c4bd" opacity="0.6200000000000001"/><circle cx="104" cy="53" r="0.8900000000000001" fill="#c8c4bd" opacity="0.2"/><circle cx="147" cy="124" r="1.23" fill="#c8c4bd" opacity="0.34"/><circle cx="190" cy="195" r="0.55" fill="#c8c4bd" opacity="0.48000000000000004"/><circle cx="27" cy="266" r="0.8900000000000001" fill="#c8c4bd" opacity="0.6200000000000001"/><circle cx="70" cy="52" r="1.23" fill="#c8c4bd" opacity="0.2"/><circle cx="113" cy="123" r="0.55" fill="#c8c4bd" opacity="0.34"/><circle cx="156" cy="194" r="0.8900000000000001" fill="#c8c4bd" opacity="0.48000000000000004"/><circle cx="199" cy="265" r="1.23" fill="#c8c4bd" opacity="0.6200000000000001"/><circle cx="36" cy="51" r="0.55" fill="#c8c4bd" opacity="0.2"/><circle cx="120" cy="141" r="69" fill="url(#halo)" opacity=".3"/>
<path d="M176.0 141.0 L197.0 141.0" stroke="#d5b980" stroke-width="2" stroke-linecap="round"/><path d="M174.1 155.5 L194.4 160.9" stroke="#d5b980" stroke-width="2" stroke-linecap="round"/><path d="M168.5 169.0 L186.7 179.5" stroke="#d5b980" stroke-width="2" stroke-linecap="round"/><path d="M159.6 180.6 L174.4 195.4" stroke="#d5b980" stroke-width="2" stroke-linecap="round"/><path d="M148.0 189.5 L158.5 207.7" stroke="#d5b980" stroke-width="2" stroke-linecap="round"/><path d="M134.5 195.1 L139.9 215.4" stroke="#d5b980" stroke-width="2" stroke-linecap="round"/><path d="M120.0 197.0 L120.0 218.0" stroke="#d5b980" stroke-width="2" stroke-linecap="round"/><path d="M105.5 195.1 L100.1 215.4" stroke="#d5b980" stroke-width="2" stroke-linecap="round"/><path d="M92.0 189.5 L81.5 207.7" stroke="#d5b980" stroke-width="2" stroke-linecap="round"/><path d="M80.4 180.6 L65.6 195.4" stroke="#d5b980" stroke-width="2" stroke-linecap="round"/><path d="M71.5 169.0 L53.3 179.5" stroke="#d5b980" stroke-width="2" stroke-linecap="round"/><path d="M65.9 155.5 L45.6 160.9" stroke="#d5b980" stroke-width="2" stroke-linecap="round"/><path d="M64.0 141.0 L43.0 141.0" stroke="#d5b980" stroke-width="2" stroke-linecap="round"/><path d="M65.9 126.5 L45.6 121.1" stroke="#d5b980" stroke-width="2" stroke-linecap="round"/><path d="M71.5 113.0 L53.3 102.5" stroke="#d5b980" stroke-width="2" stroke-linecap="round"/><path d="M80.4 101.4 L65.6 86.6" stroke="#d5b980" stroke-width="2" stroke-linecap="round"/><path d="M92.0 92.5 L81.5 74.3" stroke="#d5b980" stroke-width="2" stroke-linecap="round"/><path d="M105.5 86.9 L100.1 66.6" stroke="#d5b980" stroke-width="2" stroke-linecap="round"/><path d="M120.0 85.0 L120.0 64.0" stroke="#d5b980" stroke-width="2" stroke-linecap="round"/><path d="M134.5 86.9 L139.9 66.6" stroke="#d5b980" stroke-width="2" stroke-linecap="round"/><path d="M148.0 92.5 L158.5 74.3" stroke="#d5b980" stroke-width="2" stroke-linecap="round"/><path d="M159.6 101.4 L174.4 86.6" stroke="#d5b980" stroke-width="2" stroke-linecap="round"/><path d="M168.5 113.0 L186.7 102.5" stroke="#d5b980" stroke-width="2" stroke-linecap="round"/><path d="M174.1 126.5 L194.4 121.1" stroke="#d5b980" stroke-width="2" stroke-linecap="round"/>
<circle cx="120" cy="141" r="47" fill="#c9a66f" stroke="#ffdda0" stroke-width="3"/>
<circle cx="120" cy="141" r="32" fill="#ecd2a0" stroke="#a57c49"/>
<path d="M104 138 Q110 133 115 138 M126 138 Q133 133 139 138 M113 158 Q122 165 132 156" stroke="#675c57" stroke-width="2" fill="none"/>
<path d="M35 295 Q120 242 205 294 L205 331 L35 331Z" fill="#3a4a52" stroke="#aeb99d"/>
<g stroke="#6d956f" stroke-width="2"><path d="M54 322 L54 261 M187 322 L187 261 M83 322 L78 283 M156 322 L163 280"/></g>
<g fill="#d8c28c" stroke="#a78a63" stroke-width="1.2"><circle cx="54" cy="254" r="15"/><circle cx="186" cy="251" r="15"/><circle cx="78" cy="279" r="10"/><circle cx="161" cy="277" r="10"/></g>
<g fill="#7c654b"><circle cx="54" cy="254" r="6"/><circle cx="186" cy="251" r="6"/><circle cx="78" cy="279" r="4"/><circle cx="161" cy="277" r="4"/></g><path d="M62 345 Q120 336 178 345" stroke="#ac9773" stroke-width="1" fill="none" opacity=".6"/>
</svg>