<svg xmlns="http://www.w3.org/2000/svg" width="300" height="480" viewBox="0 0 240 380" role="img" aria-label="Ilustración original de tarot">
<defs>
  <radialGradient id="night" cx="50%" cy="38%" r="82%"><stop stop-color="#283550"/><stop offset=".56" stop-color="#16243a"/><stop offset="1" stop-color="#090f1d"/></radialGradient>
  <linearGradient id="gold" x1="0" y1="0" x2="1" y2="1"><stop stop-color="#8d744a"/><stop offset=".45" stop-color="#e8d8a4"/><stop offset="1" stop-color="#9e875d"/></linearGradient>
  <linearGradient id="sea" x1="0" y1="0" x2="0" y2="1"><stop stop-color="#5d88a6"/><stop offset="1" stop-color="#1e2c49"/></linearGradient>
  <radialGradient id="halo"><stop stop-color="#f4e9be"/><stop offset=".55" stop-color="#c2cbd0"/><stop offset="1" stop-color="#9eacd1" stop-opacity="0"/></radialGradient>
</defs>
<rect width="240" height="380" rx="7" fill="#070d16"/>
<rect x="6" y="6" width="228" height="368" rx="5" fill="url(#night)" stroke="url(#gold)" stroke-width="2"/>
<rect x="14" y="14" width="212" height="352" rx="3" fill="none" stroke="#b69c67" stroke-opacity=".75" stroke-width=".8"/>
<path d="M15 46 Q35 45 35 17 M225 46 Q205 45 205 17 M15 334 Q35 335 35 363 M225 334 Q205 335 205 363" fill="none" stroke="#d6bc87" stroke-width="1.3"/>
<g fill="url(#gold)"><circle cx="120" cy="22" r="2"/><circle cx="120" cy="356" r="2"/></g>
<circle cx="34" cy="57" r="0.55" fill="#c8c4bd" opacity="0.2"/><circle cx="77" cy="128" r="0.8900000000000001" fill="#c8c4bd" opacity="0.34"/><circle cx="120" cy="199" r="1.23" fill="#c8c4bd" opacity="0.48000000000000004"/><circle cx="163" cy="270" r="0.55" fill="#c8c4bd" opacity="0.6200000000000001"/><circle cx="206" cy="56" r="0.8900000000000001" fill="#c8c4bd" opacity="0.2"/><circle cx="43" cy="127" r="1.23" fill="#c8c4bd" opacity="0.34"/><circle cx="86" cy="198" r="0.55" fill="#c8c4bd" opacity="0.48000000000000004"/><circle cx="129" cy="269" r="0.8900000000000001" fill="#c8c4bd" opacity="0.6200000000000001"/><circle cx="172" cy="55" r="1.23" fill="#c8c4bd" opacity="0.2"/><circle cx="215" cy="126" r="0.55" fill="#c8c4bd" opacity="0.34"/><circle cx="52" cy="197" r="0.8900000000000001" fill="#c8c4bd" opacity="0.48000000000000004"/><circle cx="95" cy="268" r="1.23" fill="#c8c4bd" opacity="0.6200000000000001"/><circle cx="138" cy="54" r="0.55" fill="#c8c4bd" opacity="0.2"/><circle cx="181" cy="125" r="0.8900000000000001" fill="#c8c4bd" opacity="0.34"/><circle cx="18" cy="196" r="1.23" fill="#c8c4bd" opacity="0.48000000000000004"/><circle cx="61" cy="267" r="0.55" fill="#c8c4bd" opacity="0.6200000000000001"/><circle cx="104" cy="53" r="0.8900000000000001" fill="#c8c4bd" opacity="0.2"/><circle cx="147" cy="124" r="1.23" fill="#c8c4bd" opacity="0.34"/><circle cx="190" cy="195" r="0.55" fill="#c8c4bd" opacity="0.48000000000000004"/><circle cx="27" cy="266" r="0.8900000000000001" fill="#c8c4bd" opacity="0.6200000000000001"/><circle cx="70" cy="52" r="1.23" fill="#c8c4bd" opacity="0.2"/><circle cx="113" cy="123" r="0.55" fill="#c8c4bd" opacity="0.34"/><circle cx="156" cy="194" r="0.8900000000000001" fill="#c8c4bd" opacity="0.48000000000000004"/><circle cx="199" cy="265" r="1.23" fill="#c8c4bd" opacity="0.6200000000000001"/><circle cx="36" cy="51" r="0.55" fill="#c8c4bd" opacity="0.2"/><path d="M34 293 Q45 180 96 143 M206 293 Q188 180 145 143" fill="none" stroke="#8eaa8c" stroke-width="5"/>
<path d="M42 186 Q73 147 86 164 M198 186 Q166 147 155 164" fill="none" stroke="#7c937b" stroke-width="2"/>
<polygon points="120.0,67.0 124.2,88.8 142.6,76.4 130.2,94.8 152.0,99.0 130.2,103.2 142.6,121.6 124.2,109.2 120.0,131.0 115.8,109.2 97.4,121.6 109.8,103.2 88.0,99.0 109.8,94.8 97.4,76.4 115.8,88.8" fill="#ddcca9" stroke="#f5e4b4"/>
<circle cx="91" cy="217" r="21" fill="#d6b798"/>
<circle cx="148" cy="217" r="21" fill="#c9b29d"/>
<path d="M69 215 Q67 179 89 184 Q116 182 111 210 Q93 197 69 215 M125 218 Q124 187 144 190 Q170 189 168 213 Q148 198 125 218" fill="#222e3c"/>
<path d="M62 243 Q91 227 114 243 L119 308 L53 308Z" fill="#6e8496" stroke="#d1baa0"/>
<path d="M125 243 Q148 231 172 243 L188 308 L119 308Z" fill="#99817d" stroke="#dbc69e"/>
<path d="M111 263 Q120 251 128 263" stroke="#dec49b" stroke-width="3" fill="none"/>
<path d="M40 326 Q120 305 200 326" fill="none" stroke="#bea779" stroke-width="2"/><path d="M62 345 Q120 336 178 345" stroke="#ac9773" stroke-width="1" fill="none" opacity=".6"/>
</svg>